<svg xmlns="http://www.w3.org/2000/svg" width="214" height="214"><rect x="0" y="0" width="100%" height="100%" fill="rgb(38, 70, 142)"  /><circle cx="0.0" cy="0.0" r="35.83333333333333" fill="#ddd" style="opacity:0.05466666666666667;"  /><circle cx="214.99999999999997" cy="0.0" r="35.83333333333333" fill="#ddd" style="opacity:0.05466666666666667;"  /><circle cx="0.0" cy="214.99999999999997" r="35.83333333333333" fill="#ddd" style="opacity:0.05466666666666667;"  /><circle cx="214.99999999999997" cy="214.99999999999997" r="35.83333333333333" fill="#ddd" style="opacity:0.05466666666666667;"  /><circle cx="35.83333333333333" cy="0.0" r="35.83333333333333" fill="#222" style="opacity:0.08066666666666666;"  /><circle cx="35.83333333333333" cy="214.99999999999997" r="35.83333333333333" fill="#222" style="opacity:0.08066666666666666;"  /><circle cx="71.66666666666666" cy="0.0" r="35.83333333333333" fill="#ddd" style="opacity:0.02;"  /><circle cx="71.66666666666666" cy="214.99999999999997" r="35.83333333333333" fill="#ddd" style="opacity:0.02;"  /><circle cx="107.49999999999999" cy="0.0" r="35.83333333333333" fill="#222" style="opacity:0.028666666666666667;"  /><circle cx="107.49999999999999" cy="214.99999999999997" r="35.83333333333333" fill="#222" style="opacity:0.028666666666666667;"  /><circle cx="143.33333333333331" cy="0.0" r="35.83333333333333" fill="#222" style="opacity:0.028666666666666667;"  /><circle cx="143.33333333333331" cy="214.99999999999997" r="35.83333333333333" fill="#222" style="opacity:0.028666666666666667;"  /><circle cx="179.16666666666663" cy="0.0" r="35.83333333333333" fill="#ddd" style="opacity:0.07200000000000001;"  /><circle cx="179.16666666666663" cy="214.99999999999997" r="35.83333333333333" fill="#ddd" style="opacity:0.07200000000000001;"  /><circle cx="0.0" cy="35.83333333333333" r="35.83333333333333" fill="#222" style="opacity:0.098;"  /><circle cx="214.99999999999997" cy="35.83333333333333" r="35.83333333333333" fill="#222" style="opacity:0.098;"  /><circle cx="35.83333333333333" cy="35.83333333333333" r="35.83333333333333" fill="#ddd" style="opacity:0.02;"  /><circle cx="71.66666666666666" cy="35.83333333333333" r="35.83333333333333" fill="#ddd" style="opacity:0.10666666666666667;"  /><circle cx="107.49999999999999" cy="35.83333333333333" r="35.83333333333333" fill="#ddd" style="opacity:0.14133333333333334;"  /><circle cx="143.33333333333331" cy="35.83333333333333" r="35.83333333333333" fill="#ddd" style="opacity:0.08933333333333333;"  /><circle cx="179.16666666666663" cy="35.83333333333333" r="35.83333333333333" fill="#222" style="opacity:0.08066666666666666;"  /><circle cx="0.0" cy="71.66666666666666" r="35.83333333333333" fill="#222" style="opacity:0.11533333333333334;"  /><circle cx="214.99999999999997" cy="71.66666666666666" r="35.83333333333333" fill="#222" style="opacity:0.11533333333333334;"  /><circle cx="35.83333333333333" cy="71.66666666666666" r="35.83333333333333" fill="#222" style="opacity:0.13266666666666665;"  /><circle cx="71.66666666666666" cy="71.66666666666666" r="35.83333333333333" fill="#ddd" style="opacity:0.07200000000000001;"  /><circle cx="107.49999999999999" cy="71.66666666666666" r="35.83333333333333" fill="#222" style="opacity:0.028666666666666667;"  /><circle cx="143.33333333333331" cy="71.66666666666666" r="35.83333333333333" fill="#ddd" style="opacity:0.02;"  /><circle cx="179.16666666666663" cy="71.66666666666666" r="35.83333333333333" fill="#ddd" style="opacity:0.03733333333333333;"  /><circle cx="0.0" cy="107.49999999999999" r="35.83333333333333" fill="#ddd" style="opacity:0.12400000000000001;"  /><circle cx="214.99999999999997" cy="107.49999999999999" r="35.83333333333333" fill="#ddd" style="opacity:0.12400000000000001;"  /><circle cx="35.83333333333333" cy="107.49999999999999" r="35.83333333333333" fill="#ddd" style="opacity:0.02;"  /><circle cx="71.66666666666666" cy="107.49999999999999" r="35.83333333333333" fill="#222" style="opacity:0.028666666666666667;"  /><circle cx="107.49999999999999" cy="107.49999999999999" r="35.83333333333333" fill="#ddd" style="opacity:0.07200000000000001;"  /><circle cx="143.33333333333331" cy="107.49999999999999" r="35.83333333333333" fill="#222" style="opacity:0.15;"  /><circle cx="179.16666666666663" cy="107.49999999999999" r="35.83333333333333" fill="#222" style="opacity:0.028666666666666667;"  /><circle cx="0.0" cy="143.33333333333331" r="35.83333333333333" fill="#ddd" style="opacity:0.05466666666666667;"  /><circle cx="214.99999999999997" cy="143.33333333333331" r="35.83333333333333" fill="#ddd" style="opacity:0.05466666666666667;"  /><circle cx="35.83333333333333" cy="143.33333333333331" r="35.83333333333333" fill="#ddd" style="opacity:0.05466666666666667;"  /><circle cx="71.66666666666666" cy="143.33333333333331" r="35.83333333333333" fill="#ddd" style="opacity:0.08933333333333333;"  /><circle cx="107.49999999999999" cy="143.33333333333331" r="35.83333333333333" fill="#222" style="opacity:0.06333333333333334;"  /><circle cx="143.33333333333331" cy="143.33333333333331" r="35.83333333333333" fill="#222" style="opacity:0.08066666666666666;"  /><circle cx="179.16666666666663" cy="143.33333333333331" r="35.83333333333333" fill="#222" style="opacity:0.11533333333333334;"  /><circle cx="0.0" cy="179.16666666666663" r="35.83333333333333" fill="#222" style="opacity:0.08066666666666666;"  /><circle cx="214.99999999999997" cy="179.16666666666663" r="35.83333333333333" fill="#222" style="opacity:0.08066666666666666;"  /><circle cx="35.83333333333333" cy="179.16666666666663" r="35.83333333333333" fill="#ddd" style="opacity:0.14133333333333334;"  /><circle cx="71.66666666666666" cy="179.16666666666663" r="35.83333333333333" fill="#ddd" style="opacity:0.05466666666666667;"  /><circle cx="107.49999999999999" cy="179.16666666666663" r="35.83333333333333" fill="#ddd" style="opacity:0.14133333333333334;"  /><circle cx="143.33333333333331" cy="179.16666666666663" r="35.83333333333333" fill="#222" style="opacity:0.046;"  /><circle cx="179.16666666666663" cy="179.16666666666663" r="35.83333333333333" fill="#222" style="opacity:0.11533333333333334;"  /></svg>
