<?xml version="1.0" encoding="utf-8"?>
<svg xmlns="http://www.w3.org/2000/svg" width="360" height="936"><rect x="0" y="0" width="100%" height="100%" fill="rgb(147, 45, 112)"  /><path d="M0 30 C 62.99999999999999 0, 117.0 0, 180 30 S 297.0 60, 360 30 S 477.0 0, 540.0, 30" fill="none" stroke="#222" style="opacity:0.13266666666666665;stroke-width:26px;" transform="translate(-90, -45.0)"  /><path d="M0 30 C 62.99999999999999 0, 117.0 0, 180 30 S 297.0 60, 360 30 S 477.0 0, 540.0, 30" fill="none" stroke="#222" style="opacity:0.13266666666666665;stroke-width:26px;" transform="translate(-90, 891.0)"  /><path d="M0 30 C 62.99999999999999 0, 117.0 0, 180 30 S 297.0 60, 360 30 S 477.0 0, 540.0, 30" fill="none" stroke="#ddd" style="opacity:0.02;stroke-width:26px;" transform="translate(-90, -19.0)"  /><path d="M0 30 C 62.99999999999999 0, 117.0 0, 180 30 S 297.0 60, 360 30 S 477.0 0, 540.0, 30" fill="none" stroke="#ddd" style="opacity:0.02;stroke-width:26px;" transform="translate(-90, 917.0)"  /><path d="M0 30 C 62.99999999999999 0, 117.0 0, 180 30 S 297.0 60, 360 30 S 477.0 0, 540.0, 30" fill="none" stroke="#222" style="opacity:0.13266666666666665;stroke-width:26px;" transform="translate(-90, 7.0)"  /><path d="M0 30 C 62.99999999999999 0, 117.0 0, 180 30 S 297.0 60, 360 30 S 477.0 0, 540.0, 30" fill="none" stroke="#222" style="opacity:0.13266666666666665;stroke-width:26px;" transform="translate(-90, 943.0)"  /><path d="M0 30 C 62.99999999999999 0, 117.0 0, 180 30 S 297.0 60, 360 30 S 477.0 0, 540.0, 30" fill="none" stroke="#222" style="opacity:0.098;stroke-width:26px;" transform="translate(-90, 33.0)"  /><path d="M0 30 C 62.99999999999999 0, 117.0 0, 180 30 S 297.0 60, 360 30 S 477.0 0, 540.0, 30" fill="none" stroke="#222" style="opacity:0.098;stroke-width:26px;" transform="translate(-90, 969.0)"  /><path d="M0 30 C 62.99999999999999 0, 117.0 0, 180 30 S 297.0 60, 360 30 S 477.0 0, 540.0, 30" fill="none" stroke="#ddd" style="opacity:0.05466666666666667;stroke-width:26px;" transform="translate(-90, 59.0)"  /><path d="M0 30 C 62.99999999999999 0, 117.0 0, 180 30 S 297.0 60, 360 30 S 477.0 0, 540.0, 30" fill="none" stroke="#ddd" style="opacity:0.05466666666666667;stroke-width:26px;" transform="translate(-90, 995.0)"  /><path d="M0 30 C 62.99999999999999 0, 117.0 0, 180 30 S 297.0 60, 360 30 S 477.0 0, 540.0, 30" fill="none" stroke="#222" style="opacity:0.08066666666666666;stroke-width:26px;" transform="translate(-90, 85.0)"  /><path d="M0 30 C 62.99999999999999 0, 117.0 0, 180 30 S 297.0 60, 360 30 S 477.0 0, 540.0, 30" fill="none" stroke="#222" style="opacity:0.08066666666666666;stroke-width:26px;" transform="translate(-90, 1021.0)"  /><path d="M0 30 C 62.99999999999999 0, 117.0 0, 180 30 S 297.0 60, 360 30 S 477.0 0, 540.0, 30" fill="none" stroke="#ddd" style="opacity:0.12400000000000001;stroke-width:26px;" transform="translate(-90, 111.0)"  /><path d="M0 30 C 62.99999999999999 0, 117.0 0, 180 30 S 297.0 60, 360 30 S 477.0 0, 540.0, 30" fill="none" stroke="#ddd" style="opacity:0.12400000000000001;stroke-width:26px;" transform="translate(-90, 1047.0)"  /><path d="M0 30 C 62.99999999999999 0, 117.0 0, 180 30 S 297.0 60, 360 30 S 477.0 0, 540.0, 30" fill="none" stroke="#ddd" style="opacity:0.10666666666666667;stroke-width:26px;" transform="translate(-90, 137.0)"  /><path d="M0 30 C 62.99999999999999 0, 117.0 0, 180 30 S 297.0 60, 360 30 S 477.0 0, 540.0, 30" fill="none" stroke="#ddd" style="opacity:0.10666666666666667;stroke-width:26px;" transform="translate(-90, 1073.0)"  /><path d="M0 30 C 62.99999999999999 0, 117.0 0, 180 30 S 297.0 60, 360 30 S 477.0 0, 540.0, 30" fill="none" stroke="#222" style="opacity:0.098;stroke-width:26px;" transform="translate(-90, 163.0)"  /><path d="M0 30 C 62.99999999999999 0, 117.0 0, 180 30 S 297.0 60, 360 30 S 477.0 0, 540.0, 30" fill="none" stroke="#222" style="opacity:0.098;stroke-width:26px;" transform="translate(-90, 1099.0)"  /><path d="M0 30 C 62.99999999999999 0, 117.0 0, 180 30 S 297.0 60, 360 30 S 477.0 0, 540.0, 30" fill="none" stroke="#222" style="opacity:0.028666666666666667;stroke-width:26px;" transform="translate(-90, 189.0)"  /><path d="M0 30 C 62.99999999999999 0, 117.0 0, 180 30 S 297.0 60, 360 30 S 477.0 0, 540.0, 30" fill="none" stroke="#222" style="opacity:0.028666666666666667;stroke-width:26px;" transform="translate(-90, 1125.0)"  /><path d="M0 30 C 62.99999999999999 0, 117.0 0, 180 30 S 297.0 60, 360 30 S 477.0 0, 540.0, 30" fill="none" stroke="#222" style="opacity:0.028666666666666667;stroke-width:26px;" transform="translate(-90, 215.0)"  /><path d="M0 30 C 62.99999999999999 0, 117.0 0, 180 30 S 297.0 60, 360 30 S 477.0 0, 540.0, 30" fill="none" stroke="#222" style="opacity:0.028666666666666667;stroke-width:26px;" transform="translate(-90, 1151.0)"  /><path d="M0 30 C 62.99999999999999 0, 117.0 0, 180 30 S 297.0 60, 360 30 S 477.0 0, 540.0, 30" fill="none" stroke="#222" style="opacity:0.046;stroke-width:26px;" transform="translate(-90, 241.0)"  /><path d="M0 30 C 62.99999999999999 0, 117.0 0, 180 30 S 297.0 60, 360 30 S 477.0 0, 540.0, 30" fill="none" stroke="#222" style="opacity:0.046;stroke-width:26px;" transform="translate(-90, 1177.0)"  /><path d="M0 30 C 62.99999999999999 0, 117.0 0, 180 30 S 297.0 60, 360 30 S 477.0 0, 540.0, 30" fill="none" stroke="#222" style="opacity:0.06333333333333334;stroke-width:26px;" transform="translate(-90, 267.0)"  /><path d="M0 30 C 62.99999999999999 0, 117.0 0, 180 30 S 297.0 60, 360 30 S 477.0 0, 540.0, 30" fill="none" stroke="#222" style="opacity:0.06333333333333334;stroke-width:26px;" transform="translate(-90, 1203.0)"  /><path d="M0 30 C 62.99999999999999 0, 117.0 0, 180 30 S 297.0 60, 360 30 S 477.0 0, 540.0, 30" fill="none" stroke="#ddd" style="opacity:0.03733333333333333;stroke-width:26px;" transform="translate(-90, 293.0)"  /><path d="M0 30 C 62.99999999999999 0, 117.0 0, 180 30 S 297.0 60, 360 30 S 477.0 0, 540.0, 30" fill="none" stroke="#ddd" style="opacity:0.03733333333333333;stroke-width:26px;" transform="translate(-90, 1229.0)"  /><path d="M0 30 C 62.99999999999999 0, 117.0 0, 180 30 S 297.0 60, 360 30 S 477.0 0, 540.0, 30" fill="none" stroke="#222" style="opacity:0.028666666666666667;stroke-width:26px;" transform="translate(-90, 319.0)"  /><path d="M0 30 C 62.99999999999999 0, 117.0 0, 180 30 S 297.0 60, 360 30 S 477.0 0, 540.0, 30" fill="none" stroke="#222" style="opacity:0.028666666666666667;stroke-width:26px;" transform="translate(-90, 1255.0)"  /><path d="M0 30 C 62.99999999999999 0, 117.0 0, 180 30 S 297.0 60, 360 30 S 477.0 0, 540.0, 30" fill="none" stroke="#ddd" style="opacity:0.02;stroke-width:26px;" transform="translate(-90, 345.0)"  /><path d="M0 30 C 62.99999999999999 0, 117.0 0, 180 30 S 297.0 60, 360 30 S 477.0 0, 540.0, 30" fill="none" stroke="#ddd" style="opacity:0.02;stroke-width:26px;" transform="translate(-90, 1281.0)"  /><path d="M0 30 C 62.99999999999999 0, 117.0 0, 180 30 S 297.0 60, 360 30 S 477.0 0, 540.0, 30" fill="none" stroke="#222" style="opacity:0.08066666666666666;stroke-width:26px;" transform="translate(-90, 371.0)"  /><path d="M0 30 C 62.99999999999999 0, 117.0 0, 180 30 S 297.0 60, 360 30 S 477.0 0, 540.0, 30" fill="none" stroke="#222" style="opacity:0.08066666666666666;stroke-width:26px;" transform="translate(-90, 1307.0)"  /><path d="M0 30 C 62.99999999999999 0, 117.0 0, 180 30 S 297.0 60, 360 30 S 477.0 0, 540.0, 30" fill="none" stroke="#222" style="opacity:0.08066666666666666;stroke-width:26px;" transform="translate(-90, 397.0)"  /><path d="M0 30 C 62.99999999999999 0, 117.0 0, 180 30 S 297.0 60, 360 30 S 477.0 0, 540.0, 30" fill="none" stroke="#222" style="opacity:0.08066666666666666;stroke-width:26px;" transform="translate(-90, 1333.0)"  /><path d="M0 30 C 62.99999999999999 0, 117.0 0, 180 30 S 297.0 60, 360 30 S 477.0 0, 540.0, 30" fill="none" stroke="#ddd" style="opacity:0.08933333333333333;stroke-width:26px;" transform="translate(-90, 423.0)"  /><path d="M0 30 C 62.99999999999999 0, 117.0 0, 180 30 S 297.0 60, 360 30 S 477.0 0, 540.0, 30" fill="none" stroke="#ddd" style="opacity:0.08933333333333333;stroke-width:26px;" transform="translate(-90, 1359.0)"  /><path d="M0 30 C 62.99999999999999 0, 117.0 0, 180 30 S 297.0 60, 360 30 S 477.0 0, 540.0, 30" fill="none" stroke="#ddd" style="opacity:0.10666666666666667;stroke-width:26px;" transform="translate(-90, 449.0)"  /><path d="M0 30 C 62.99999999999999 0, 117.0 0, 180 30 S 297.0 60, 360 30 S 477.0 0, 540.0, 30" fill="none" stroke="#ddd" style="opacity:0.10666666666666667;stroke-width:26px;" transform="translate(-90, 1385.0)"  /><path d="M0 30 C 62.99999999999999 0, 117.0 0, 180 30 S 297.0 60, 360 30 S 477.0 0, 540.0, 30" fill="none" stroke="#222" style="opacity:0.046;stroke-width:26px;" transform="translate(-90, 475.0)"  /><path d="M0 30 C 62.99999999999999 0, 117.0 0, 180 30 S 297.0 60, 360 30 S 477.0 0, 540.0, 30" fill="none" stroke="#222" style="opacity:0.046;stroke-width:26px;" transform="translate(-90, 1411.0)"  /><path d="M0 30 C 62.99999999999999 0, 117.0 0, 180 30 S 297.0 60, 360 30 S 477.0 0, 540.0, 30" fill="none" stroke="#222" style="opacity:0.06333333333333334;stroke-width:26px;" transform="translate(-90, 501.0)"  /><path d="M0 30 C 62.99999999999999 0, 117.0 0, 180 30 S 297.0 60, 360 30 S 477.0 0, 540.0, 30" fill="none" stroke="#222" style="opacity:0.06333333333333334;stroke-width:26px;" transform="translate(-90, 1437.0)"  /><path d="M0 30 C 62.99999999999999 0, 117.0 0, 180 30 S 297.0 60, 360 30 S 477.0 0, 540.0, 30" fill="none" stroke="#222" style="opacity:0.06333333333333334;stroke-width:26px;" transform="translate(-90, 527.0)"  /><path d="M0 30 C 62.99999999999999 0, 117.0 0, 180 30 S 297.0 60, 360 30 S 477.0 0, 540.0, 30" fill="none" stroke="#222" style="opacity:0.06333333333333334;stroke-width:26px;" transform="translate(-90, 1463.0)"  /><path d="M0 30 C 62.99999999999999 0, 117.0 0, 180 30 S 297.0 60, 360 30 S 477.0 0, 540.0, 30" fill="none" stroke="#ddd" style="opacity:0.12400000000000001;stroke-width:26px;" transform="translate(-90, 553.0)"  /><path d="M0 30 C 62.99999999999999 0, 117.0 0, 180 30 S 297.0 60, 360 30 S 477.0 0, 540.0, 30" fill="none" stroke="#ddd" style="opacity:0.12400000000000001;stroke-width:26px;" transform="translate(-90, 1489.0)"  /><path d="M0 30 C 62.99999999999999 0, 117.0 0, 180 30 S 297.0 60, 360 30 S 477.0 0, 540.0, 30" fill="none" stroke="#ddd" style="opacity:0.08933333333333333;stroke-width:26px;" transform="translate(-90, 579.0)"  /><path d="M0 30 C 62.99999999999999 0, 117.0 0, 180 30 S 297.0 60, 360 30 S 477.0 0, 540.0, 30" fill="none" stroke="#ddd" style="opacity:0.08933333333333333;stroke-width:26px;" transform="translate(-90, 1515.0)"  /><path d="M0 30 C 62.99999999999999 0, 117.0 0, 180 30 S 297.0 60, 360 30 S 477.0 0, 540.0, 30" fill="none" stroke="#222" style="opacity:0.13266666666666665;stroke-width:26px;" transform="translate(-90, 605.0)"  /><path d="M0 30 C 62.99999999999999 0, 117.0 0, 180 30 S 297.0 60, 360 30 S 477.0 0, 540.0, 30" fill="none" stroke="#222" style="opacity:0.13266666666666665;stroke-width:26px;" transform="translate(-90, 1541.0)"  /><path d="M0 30 C 62.99999999999999 0, 117.0 0, 180 30 S 297.0 60, 360 30 S 477.0 0, 540.0, 30" fill="none" stroke="#222" style="opacity:0.13266666666666665;stroke-width:26px;" transform="translate(-90, 631.0)"  /><path d="M0 30 C 62.99999999999999 0, 117.0 0, 180 30 S 297.0 60, 360 30 S 477.0 0, 540.0, 30" fill="none" stroke="#222" style="opacity:0.13266666666666665;stroke-width:26px;" transform="translate(-90, 1567.0)"  /><path d="M0 30 C 62.99999999999999 0, 117.0 0, 180 30 S 297.0 60, 360 30 S 477.0 0, 540.0, 30" fill="none" stroke="#ddd" style="opacity:0.05466666666666667;stroke-width:26px;" transform="translate(-90, 657.0)"  /><path d="M0 30 C 62.99999999999999 0, 117.0 0, 180 30 S 297.0 60, 360 30 S 477.0 0, 540.0, 30" fill="none" stroke="#ddd" style="opacity:0.05466666666666667;stroke-width:26px;" transform="translate(-90, 1593.0)"  /><path d="M0 30 C 62.99999999999999 0, 117.0 0, 180 30 S 297.0 60, 360 30 S 477.0 0, 540.0, 30" fill="none" stroke="#ddd" style="opacity:0.08933333333333333;stroke-width:26px;" transform="translate(-90, 683.0)"  /><path d="M0 30 C 62.99999999999999 0, 117.0 0, 180 30 S 297.0 60, 360 30 S 477.0 0, 540.0, 30" fill="none" stroke="#ddd" style="opacity:0.08933333333333333;stroke-width:26px;" transform="translate(-90, 1619.0)"  /><path d="M0 30 C 62.99999999999999 0, 117.0 0, 180 30 S 297.0 60, 360 30 S 477.0 0, 540.0, 30" fill="none" stroke="#ddd" style="opacity:0.05466666666666667;stroke-width:26px;" transform="translate(-90, 709.0)"  /><path d="M0 30 C 62.99999999999999 0, 117.0 0, 180 30 S 297.0 60, 360 30 S 477.0 0, 540.0, 30" fill="none" stroke="#ddd" style="opacity:0.05466666666666667;stroke-width:26px;" transform="translate(-90, 1645.0)"  /><path d="M0 30 C 62.99999999999999 0, 117.0 0, 180 30 S 297.0 60, 360 30 S 477.0 0, 540.0, 30" fill="none" stroke="#ddd" style="opacity:0.07200000000000001;stroke-width:26px;" transform="translate(-90, 735.0)"  /><path d="M0 30 C 62.99999999999999 0, 117.0 0, 180 30 S 297.0 60, 360 30 S 477.0 0, 540.0, 30" fill="none" stroke="#ddd" style="opacity:0.07200000000000001;stroke-width:26px;" transform="translate(-90, 1671.0)"  /><path d="M0 30 C 62.99999999999999 0, 117.0 0, 180 30 S 297.0 60, 360 30 S 477.0 0, 540.0, 30" fill="none" stroke="#222" style="opacity:0.11533333333333334;stroke-width:26px;" transform="translate(-90, 761.0)"  /><path d="M0 30 C 62.99999999999999 0, 117.0 0, 180 30 S 297.0 60, 360 30 S 477.0 0, 540.0, 30" fill="none" stroke="#222" style="opacity:0.11533333333333334;stroke-width:26px;" transform="translate(-90, 1697.0)"  /><path d="M0 30 C 62.99999999999999 0, 117.0 0, 180 30 S 297.0 60, 360 30 S 477.0 0, 540.0, 30" fill="none" stroke="#ddd" style="opacity:0.08933333333333333;stroke-width:26px;" transform="translate(-90, 787.0)"  /><path d="M0 30 C 62.99999999999999 0, 117.0 0, 180 30 S 297.0 60, 360 30 S 477.0 0, 540.0, 30" fill="none" stroke="#ddd" style="opacity:0.08933333333333333;stroke-width:26px;" transform="translate(-90, 1723.0)"  /><path d="M0 30 C 62.99999999999999 0, 117.0 0, 180 30 S 297.0 60, 360 30 S 477.0 0, 540.0, 30" fill="none" stroke="#ddd" style="opacity:0.14133333333333334;stroke-width:26px;" transform="translate(-90, 813.0)"  /><path d="M0 30 C 62.99999999999999 0, 117.0 0, 180 30 S 297.0 60, 360 30 S 477.0 0, 540.0, 30" fill="none" stroke="#ddd" style="opacity:0.14133333333333334;stroke-width:26px;" transform="translate(-90, 1749.0)"  /><path d="M0 30 C 62.99999999999999 0, 117.0 0, 180 30 S 297.0 60, 360 30 S 477.0 0, 540.0, 30" fill="none" stroke="#ddd" style="opacity:0.14133333333333334;stroke-width:26px;" transform="translate(-90, 839.0)"  /><path d="M0 30 C 62.99999999999999 0, 117.0 0, 180 30 S 297.0 60, 360 30 S 477.0 0, 540.0, 30" fill="none" stroke="#ddd" style="opacity:0.14133333333333334;stroke-width:26px;" transform="translate(-90, 1775.0)"  /><path d="M0 30 C 62.99999999999999 0, 117.0 0, 180 30 S 297.0 60, 360 30 S 477.0 0, 540.0, 30" fill="none" stroke="#222" style="opacity:0.13266666666666665;stroke-width:26px;" transform="translate(-90, 865.0)"  /><path d="M0 30 C 62.99999999999999 0, 117.0 0, 180 30 S 297.0 60, 360 30 S 477.0 0, 540.0, 30" fill="none" stroke="#222" style="opacity:0.13266666666666665;stroke-width:26px;" transform="translate(-90, 1801.0)"  /></svg>
